<svg width="24" height="24" viewBox="0 0 24 24" fill="none"
    xmlns="http://www.w3.org/2000/svg">
    <g id="social/facebook-circle">
        <path id="fill" d="M12.0049 2C9.47543 1.99762 7.03917 2.95956 5.18723 4.69188C3.33528 6.42421 2.2054 8.79808 2.02537 11.3349C1.84533 13.8718 2.62854 16.3829 4.21708 18.3621C5.80563 20.3412 8.08137 21.6412 10.5855 22V14.8844H8.04665V11.9297H10.5855V9.7588C10.5855 7.24623 12.1248 5.8593 14.3638 5.8593C15.1185 5.8543 15.8728 5.89457 16.6228 5.9799V8.61307H15.0635C13.844 8.61307 13.6041 9.19598 13.6041 10.0402V11.9297H16.5028L16.123 14.8844H13.6041V21.9598C16.0835 21.5569 18.3209 20.2298 19.8708 18.2428C21.4207 16.2558 22.1694 13.7547 21.9677 11.2376C21.766 8.72055 20.6288 6.3722 18.7825 4.66031C16.9362 2.94841 14.5163 1.99858 12.0049 2Z" fill="currentColor"/>
    </g>
</svg>
