<?xml version="1.0" encoding="utf-8"?>
<!-- Generator: Adobe Illustrator 24.2.1, SVG Export Plug-In . SVG Version: 6.00 Build 0)  -->
<svg version="1.1" id="Layer_1" xmlns="http://www.w3.org/2000/svg" xmlns:xlink="http://www.w3.org/1999/xlink" x="0px" y="0px"
	 viewBox="0 0 20 20" style="enable-background:new 0 0 20 20;" xml:space="preserve">
<g>
	<path style="fill:#4E4E4E;" d="M19.8,4.9c-0.1-0.1-0.3-0.2-0.5-0.2H4.7L3.8,0.5C3.8,0.2,3.5,0,3.2,0H0v1.2h2.7l2.5,12.7
		c0.1,0.3,0.3,0.5,0.6,0.5l11.8,0.1c0,0,0,0,0,0c0.3,0,0.5-0.2,0.6-0.5L20,5.4C20,5.2,20,5,19.8,4.9z M17.1,13.2L6.3,13.1L4.9,5.9
		h13.8L17.1,13.2z"/>
	<circle style="fill:#4E4E4E;" cx="7.2" cy="18" r="2"/>
	<circle style="fill:#4E4E4E;" cx="16.3" cy="18" r="2"/>
</g>
</svg>
