<svg width="24" height="24" viewBox="0 0 24 24" fill="none"
    xmlns="http://www.w3.org/2000/svg">
    <g id="social/instagram-circle">
        <g id="fill">
            <path d="M17.02 8.26C16.9113 7.97822 16.7448 7.72232 16.5312 7.50876C16.3177 7.2952 16.0618 7.12871 15.78 7.02C15.3888 6.87767 14.9762 6.80327 14.56 6.8C13.9 6.76 13.68 6.76 11.94 6.76C10.22 6.76 10 6.8 9.32 6.8C8.89725 6.80321 8.47806 6.87758 8.08 7.02C7.79823 7.12871 7.54233 7.2952 7.32877 7.50876C7.11521 7.72232 6.94872 7.97822 6.84 8.26C6.69759 8.65805 6.62322 9.07724 6.62 9.5C6.58 10.16 6.58 10.4 6.58 12.12C6.58 13.84 6.62 14.06 6.62 14.74C6.62322 15.1627 6.69759 15.5819 6.84 15.98C6.94872 16.2618 7.11521 16.5177 7.32877 16.7312C7.54233 16.9448 7.79823 17.1113 8.08 17.22C8.49254 17.3576 8.92517 17.4252 9.36 17.42C10.02 17.46 10.26 17.46 11.98 17.46C13.7 17.46 13.92 17.42 14.6 17.42C15.0162 17.4167 15.4288 17.3423 15.82 17.2C16.1018 17.0913 16.3577 16.9248 16.5712 16.7112C16.7848 16.4977 16.9513 16.2418 17.06 15.96C17.2024 15.5688 17.2768 15.1562 17.28 14.74C17.32 14.08 17.32 13.84 17.32 12.12C17.32 10.4 17.28 10.18 17.28 9.5C17.263 9.07507 17.1751 8.65596 17.02 8.26ZM11.94 15.48C11.2755 15.48 10.6258 15.2829 10.0733 14.9137C9.52074 14.5445 9.09008 14.0198 8.83577 13.4058C8.58146 12.7919 8.51492 12.1163 8.64457 11.4645C8.77421 10.8127 9.09422 10.214 9.56413 9.74412C10.034 9.27421 10.6327 8.9542 11.2845 8.82456C11.9363 8.69491 12.6119 8.76145 13.2258 9.01576C13.8398 9.27007 14.3645 9.70073 14.7337 10.2533C15.1029 10.8058 15.3 11.4555 15.3 12.12C15.3008 12.5615 15.2144 12.9987 15.0458 13.4067C14.8773 13.8148 14.6298 14.1855 14.3176 14.4976C14.0055 14.8098 13.6348 15.0573 13.2268 15.2258C12.8187 15.3944 12.3815 15.4808 11.94 15.48ZM15.44 9.42C15.2331 9.42 15.0347 9.33782 14.8885 9.19154C14.7422 9.04526 14.66 8.84687 14.66 8.64C14.6636 8.43425 14.7469 8.23794 14.8924 8.09243C15.0379 7.94693 15.2343 7.86359 15.44 7.86C15.6469 7.86 15.8453 7.94217 15.9915 8.08845C16.1378 8.23473 16.22 8.43313 16.22 8.64C16.22 8.84687 16.1378 9.04526 15.9915 9.19154C15.8453 9.33782 15.6469 9.42 15.44 9.42Z" fill="currentColor"/>
            <path d="M11.94 9.94C11.6537 9.94 11.3702 9.99638 11.1057 10.1059C10.8413 10.2155 10.6009 10.3761 10.3985 10.5785C10.1961 10.7809 10.0355 11.0213 9.92594 11.2857C9.81638 11.5502 9.76 11.8337 9.76 12.12C9.76 12.4063 9.81638 12.6898 9.92594 12.9542C10.0355 13.2187 10.1961 13.4591 10.3985 13.6615C10.6009 13.8639 10.8413 14.0245 11.1057 14.1341C11.3702 14.2436 11.6537 14.3 11.94 14.3C12.2263 14.3 12.5098 14.2436 12.7742 14.1341C13.0387 14.0245 13.2791 13.8639 13.4815 13.6615C13.6839 13.4591 13.8445 13.2187 13.9541 12.9542C14.0636 12.6898 14.12 12.4063 14.12 12.12C14.12 11.8337 14.0636 11.5502 13.9541 11.2857C13.8445 11.0213 13.6839 10.7809 13.4815 10.5785C13.2791 10.3761 13.0387 10.2155 12.7742 10.1059C12.5098 9.99638 12.2263 9.94 11.94 9.94Z" fill="currentColor"/>
            <path d="M12 2C10.0222 2 8.08879 2.58649 6.4443 3.6853C4.79981 4.78412 3.51809 6.3459 2.76121 8.17316C2.00433 10.0004 1.8063 12.0111 2.19215 13.9509C2.578 15.8907 3.53041 17.6725 4.92894 19.0711C6.32746 20.4696 8.10929 21.422 10.0491 21.8078C11.9889 22.1937 13.9996 21.9957 15.8268 21.2388C17.6541 20.4819 19.2159 19.2002 20.3147 17.5557C21.4135 15.9112 22 13.9778 22 12C21.9989 9.34816 20.945 6.80524 19.0699 4.9301C17.1948 3.05497 14.6518 2.00106 12 2ZM18.44 14.82C18.4295 15.3663 18.3281 15.907 18.14 16.42C17.9712 16.856 17.7132 17.252 17.3826 17.5826C17.052 17.9132 16.656 18.1712 16.22 18.34C15.708 18.5316 15.1667 18.6331 14.62 18.64C13.92 18.68 13.7 18.68 11.92 18.68C10.14 18.68 9.92 18.68 9.22 18.64C8.67372 18.6295 8.133 18.5281 7.62 18.34C7.184 18.1712 6.78803 17.9132 6.45742 17.5826C6.12681 17.252 5.86884 16.856 5.7 16.42C5.50837 15.908 5.40687 15.3667 5.4 14.82C5.36 14.12 5.36 13.9 5.36 12.12C5.36 10.34 5.36 10.12 5.4 9.42C5.41054 8.87371 5.51193 8.33299 5.7 7.82C5.86884 7.38399 6.12681 6.98802 6.45742 6.65741C6.78803 6.3268 7.184 6.06883 7.62 5.9C8.13201 5.70836 8.67335 5.60686 9.22 5.6C9.92 5.56 10.14 5.56 11.92 5.56C13.7 5.56 13.92 5.56 14.62 5.62C15.1663 5.63054 15.707 5.73192 16.22 5.92C16.656 6.08883 17.052 6.3468 17.3826 6.67741C17.7132 7.00802 17.9712 7.40399 18.14 7.84C18.3316 8.35201 18.4331 8.89334 18.44 9.44C18.48 10.14 18.48 10.36 18.48 12.14C18.48 13.9 18.44 14.12 18.44 14.82Z" fill="currentColor"/>
        </g>
    </g>
</svg>
