<svg width="24" height="24" viewBox="0 0 24 24" fill="none"
    xmlns="http://www.w3.org/2000/svg">
    <g id="social/linkedin-circle">
        <path id="fill" d="M12 2C10.0222 2 8.08879 2.58649 6.4443 3.6853C4.79981 4.78412 3.51809 6.3459 2.76121 8.17316C2.00433 10.0004 1.8063 12.0111 2.19215 13.9509C2.578 15.8907 3.53041 17.6725 4.92894 19.0711C6.32746 20.4696 8.10929 21.422 10.0491 21.8078C11.9889 22.1937 13.9996 21.9957 15.8268 21.2388C17.6541 20.4819 19.2159 19.2002 20.3147 17.5557C21.4135 15.9112 22 13.9778 22 12C21.9989 9.34816 20.945 6.80524 19.0699 4.9301C17.1948 3.05497 14.6518 2.00106 12 2V2ZM9.48 16.38H7.2V9.5H9.48V16.38ZM8.32 8.56C7.54 8.56 7.04 8.04 7.04 7.38C7.04 6.7 7.56 6.2 8.34 6.2C9.12 6.2 9.6 6.72 9.62 7.38C9.62 8.04 9.12 8.56 8.32 8.56ZM17.72 16.38H15.44V12.7C15.44 11.78 15.1 11.14 14.28 11.14C14.0208 11.1416 13.7684 11.2232 13.5572 11.3735C13.3461 11.5238 13.1864 11.7356 13.1 11.98C13.0398 12.1603 13.0127 12.35 13.02 12.54V16.38H10.74C10.74 16.38 10.78 10.14 10.74 9.5H13.02V10.48C13.2267 10.1201 13.5279 9.8236 13.891 9.62264C14.2541 9.42169 14.6653 9.32395 15.08 9.34C16.58 9.34 17.72 10.32 17.72 12.44V16.38Z" fill="currentColor"/>
    </g>
</svg>
