<svg width="24" height="24" viewBox="0 0 24 24" fill="none"
    xmlns="http://www.w3.org/2000/svg">
    <g id="social/youtube">
        <path id="fill" fill-rule="evenodd" clip-rule="evenodd" d="M19.8105 5.44C20.6696 5.66729 21.3435 6.33354 21.5805 7.19C21.8699 8.77677 22.0105 10.3871 22.0005 12C22.0105 13.6129 21.8699 15.2232 21.5805 16.81C21.3478 17.6731 20.6736 18.3473 19.8105 18.58C18.2505 19 12.0005 19 12.0005 19C12.0005 19 5.7505 19 4.1905 18.58C3.32741 18.3473 2.65322 17.6731 2.4205 16.81C2.13109 15.2232 1.99048 13.6129 2.0005 12C1.99048 10.3871 2.13109 8.77677 2.4205 7.19C2.65322 6.32691 3.32741 5.65272 4.1905 5.42C5.7505 5 12.0005 5 12.0005 5C12.0005 5 18.2505 5 19.8105 5.44ZM15.2005 12L10.0005 9V15L15.2005 12Z" fill="currentColor"/>
    </g>
</svg>
